<svg id="visual" viewBox="0 0 960 300" width="960" height="300" xmlns="http://www.w3.org/2000/svg" xmlns:xlink="http://www.w3.org/1999/xlink" version="1.1"><rect x="0" y="0" width="960" height="300" fill="#202731"></rect><path d="M0 113L22.8 108.3C45.7 103.7 91.3 94.3 137 88.5C182.7 82.7 228.3 80.3 274 81C319.7 81.7 365.3 85.3 411.2 88.3C457 91.3 503 93.7 548.8 98C594.7 102.3 640.3 108.7 686 107.5C731.7 106.3 777.3 97.7 823 91.7C868.7 85.7 914.3 82.3 937.2 80.7L960 79L960 0L937.2 0C914.3 0 868.7 0 823 0C777.3 0 731.7 0 686 0C640.3 0 594.7 0 548.8 0C503 0 457 0 411.2 0C365.3 0 319.7 0 274 0C228.3 0 182.7 0 137 0C91.3 0 45.7 0 22.8 0L0 0Z" fill="#ff6f61"></path><path d="M0 64L22.8 64.3C45.7 64.7 91.3 65.3 137 67.3C182.7 69.3 228.3 72.7 274 75.8C319.7 79 365.3 82 411.2 81.3C457 80.7 503 76.3 548.8 78.2C594.7 80 640.3 88 686 90.5C731.7 93 777.3 90 823 83.8C868.7 77.7 914.3 68.3 937.2 63.7L960 59L960 0L937.2 0C914.3 0 868.7 0 823 0C777.3 0 731.7 0 686 0C640.3 0 594.7 0 548.8 0C503 0 457 0 411.2 0C365.3 0 319.7 0 274 0C228.3 0 182.7 0 137 0C91.3 0 45.7 0 22.8 0L0 0Z" fill="#f76455"></path><path d="M0 51L22.8 50.7C45.7 50.3 91.3 49.7 137 52.2C182.7 54.7 228.3 60.3 274 60.3C319.7 60.3 365.3 54.7 411.2 53.5C457 52.3 503 55.7 548.8 57.2C594.7 58.7 640.3 58.3 686 56.5C731.7 54.7 777.3 51.3 823 51.7C868.7 52 914.3 56 937.2 58L960 60L960 0L937.2 0C914.3 0 868.7 0 823 0C777.3 0 731.7 0 686 0C640.3 0 594.7 0 548.8 0C503 0 457 0 411.2 0C365.3 0 319.7 0 274 0C228.3 0 182.7 0 137 0C91.3 0 45.7 0 22.8 0L0 0Z" fill="#ee5849"></path><path d="M0 58L22.8 54.8C45.7 51.7 91.3 45.3 137 44.8C182.7 44.3 228.3 49.7 274 49.8C319.7 50 365.3 45 411.2 44.3C457 43.7 503 47.3 548.8 48.8C594.7 50.3 640.3 49.7 686 47.2C731.7 44.7 777.3 40.3 823 37C868.7 33.7 914.3 31.3 937.2 30.2L960 29L960 0L937.2 0C914.3 0 868.7 0 823 0C777.3 0 731.7 0 686 0C640.3 0 594.7 0 548.8 0C503 0 457 0 411.2 0C365.3 0 319.7 0 274 0C228.3 0 182.7 0 137 0C91.3 0 45.7 0 22.8 0L0 0Z" fill="#e64c3d"></path><path d="M0 23L22.8 22.3C45.7 21.7 91.3 20.3 137 20.2C182.7 20 228.3 21 274 22.3C319.7 23.7 365.3 25.3 411.2 24.5C457 23.7 503 20.3 548.8 21.3C594.7 22.3 640.3 27.7 686 29.7C731.7 31.7 777.3 30.3 823 30C868.7 29.7 914.3 30.3 937.2 30.7L960 31L960 0L937.2 0C914.3 0 868.7 0 823 0C777.3 0 731.7 0 686 0C640.3 0 594.7 0 548.8 0C503 0 457 0 411.2 0C365.3 0 319.7 0 274 0C228.3 0 182.7 0 137 0C91.3 0 45.7 0 22.8 0L0 0Z" fill="#dd3f31"></path></svg>