<svg id="visual" viewBox="0 0 960 300" width="960" height="300" xmlns="http://www.w3.org/2000/svg" xmlns:xlink="http://www.w3.org/1999/xlink" version="1.1"><rect x="0" y="0" width="960" height="300" fill="#ff0066"></rect><path d="M0 203L10.7 206.8C21.3 210.7 42.7 218.3 64 219.8C85.3 221.3 106.7 216.7 128 216.3C149.3 216 170.7 220 192 217.8C213.3 215.7 234.7 207.3 256 207.2C277.3 207 298.7 215 320 216.8C341.3 218.7 362.7 214.3 384 214.3C405.3 214.3 426.7 218.7 448 223.3C469.3 228 490.7 233 512 230.8C533.3 228.7 554.7 219.3 576 215.8C597.3 212.3 618.7 214.7 640 214.7C661.3 214.7 682.7 212.3 704 209.7C725.3 207 746.7 204 768 211.5C789.3 219 810.7 237 832 237.5C853.3 238 874.7 221 896 217C917.3 213 938.7 222 949.3 226.5L960 231L960 0L949.3 0C938.7 0 917.3 0 896 0C874.7 0 853.3 0 832 0C810.7 0 789.3 0 768 0C746.7 0 725.3 0 704 0C682.7 0 661.3 0 640 0C618.7 0 597.3 0 576 0C554.7 0 533.3 0 512 0C490.7 0 469.3 0 448 0C426.7 0 405.3 0 384 0C362.7 0 341.3 0 320 0C298.7 0 277.3 0 256 0C234.7 0 213.3 0 192 0C170.7 0 149.3 0 128 0C106.7 0 85.3 0 64 0C42.7 0 21.3 0 10.7 0L0 0Z" fill="#fe00ea"></path><path d="M0 130L10.7 129.5C21.3 129 42.7 128 64 134.7C85.3 141.3 106.7 155.7 128 159C149.3 162.3 170.7 154.7 192 151.2C213.3 147.7 234.7 148.3 256 147.2C277.3 146 298.7 143 320 143.3C341.3 143.7 362.7 147.3 384 154.3C405.3 161.3 426.7 171.7 448 165.8C469.3 160 490.7 138 512 134C533.3 130 554.7 144 576 148.2C597.3 152.3 618.7 146.7 640 143.7C661.3 140.7 682.7 140.3 704 142.8C725.3 145.3 746.7 150.7 768 149.3C789.3 148 810.7 140 832 141.2C853.3 142.3 874.7 152.7 896 161C917.3 169.3 938.7 175.7 949.3 178.8L960 182L960 0L949.3 0C938.7 0 917.3 0 896 0C874.7 0 853.3 0 832 0C810.7 0 789.3 0 768 0C746.7 0 725.3 0 704 0C682.7 0 661.3 0 640 0C618.7 0 597.3 0 576 0C554.7 0 533.3 0 512 0C490.7 0 469.3 0 448 0C426.7 0 405.3 0 384 0C362.7 0 341.3 0 320 0C298.7 0 277.3 0 256 0C234.7 0 213.3 0 192 0C170.7 0 149.3 0 128 0C106.7 0 85.3 0 64 0C42.7 0 21.3 0 10.7 0L0 0Z" fill="#524ba9"></path><path d="M0 44L10.7 55.2C21.3 66.3 42.7 88.7 64 91.3C85.3 94 106.7 77 128 65.2C149.3 53.3 170.7 46.7 192 53.3C213.3 60 234.7 80 256 79.7C277.3 79.3 298.7 58.7 320 57.2C341.3 55.7 362.7 73.3 384 76.5C405.3 79.7 426.7 68.3 448 70.2C469.3 72 490.7 87 512 87.3C533.3 87.7 554.7 73.3 576 65.5C597.3 57.7 618.7 56.3 640 58.7C661.3 61 682.7 67 704 74C725.3 81 746.7 89 768 87.2C789.3 85.3 810.7 73.7 832 74.7C853.3 75.7 874.7 89.3 896 94.7C917.3 100 938.7 97 949.3 95.5L960 94L960 0L949.3 0C938.7 0 917.3 0 896 0C874.7 0 853.3 0 832 0C810.7 0 789.3 0 768 0C746.7 0 725.3 0 704 0C682.7 0 661.3 0 640 0C618.7 0 597.3 0 576 0C554.7 0 533.3 0 512 0C490.7 0 469.3 0 448 0C426.7 0 405.3 0 384 0C362.7 0 341.3 0 320 0C298.7 0 277.3 0 256 0C234.7 0 213.3 0 192 0C170.7 0 149.3 0 128 0C106.7 0 85.3 0 64 0C42.7 0 21.3 0 10.7 0L0 0Z" fill="#202731"></path></svg>